<svg version="1.1" xmlns="http://www.w3.org/2000/svg" xmlns:xlink="http://www.w3.org/1999/xlink" width="38.9618" height="27.93609" viewBox="0,0,38.9618,27.93609"><g transform="translate(-297.88898,-169.20176)"><g data-paper-data="{&quot;isPaintingLayer&quot;:true}" fill-rule="nonzero" stroke-linejoin="miter" stroke-miterlimit="10" stroke-dasharray="" stroke-dashoffset="0" style="mix-blend-mode: normal"><path d="M313.58636,193.07906c-0.07906,-0.23717 0.15811,-0.31623 0.15811,-0.31623l0.14372,-0.04526c0.33332,-0.16356 0.58924,-0.20165 0.95997,-0.20165c1.27283,0.25825 1.13684,-0.89722 2.47059,-0.76471c1.12924,0.1122 1.80122,1.18553 2.97002,0.94833c0.84202,-0.27053 0.67739,-1.03628 1.24033,-1.58221c0.97817,-0.9486 2.17669,0.30336 1.81398,-1.48008c0,0 -0.04903,-0.24515 0.19612,-0.29417c0.24515,-0.04903 0.29417,0.19612 0.29417,0.19612c0.44656,2.27753 -0.99593,0.92584 -1.95072,1.93169c-0.62268,0.65597 -0.44781,1.36372 -1.46555,1.71191c-1.33275,0.26356 -1.92655,-0.81082 -3.14762,-0.93402c-1.16452,-0.11749 -1.10446,1.0321 -2.47059,0.76471c-0.27315,0 -0.44357,0.02659 -0.68709,0.15129l-0.20922,0.07239c0,0 -0.23717,0.07906 -0.31623,-0.15811z" fill="#ff9ecf" stroke="none" stroke-width="0.5" stroke-linecap="butt"/><path d="M336.10078,175.62013l-14.70157,-5.62794" data-paper-data="{&quot;index&quot;:null}" fill="none" stroke="#000000" stroke-width="1.5" stroke-linecap="round"/><path d="M298.63898,196.38785l15.39852,-3.27038" data-paper-data="{&quot;index&quot;:null}" fill="none" stroke="#000000" stroke-width="1.5" stroke-linecap="round"/><path d="M309.95176,180c0,-5.54949 4.49875,-10.04824 10.04824,-10.04824c5.54949,0 10.04824,4.49875 10.04824,10.04824c0,5.54949 -4.49875,10.04824 -10.04824,10.04824c-5.54949,0 -10.04824,-4.49875 -10.04824,-10.04824z" fill="#4c7b51" stroke="#000000" stroke-width="1.5" stroke-linecap="butt"/><path d="M319.35863,170.69711c0.82253,1.15166 -0.15018,3.25621 -2.17261,4.70065c-2.02243,1.44444 -4.32872,1.68178 -5.15125,0.53012c-0.82253,-1.15166 0.15018,-3.25621 2.17261,-4.70065c2.02243,-1.44444 4.32872,-1.68178 5.15125,-0.53012z" fill="#e39eff" stroke="#000000" stroke-width="0.5" stroke-linecap="butt"/><path d="M319.19673,172.07938c0.03702,-0.03836 0.09322,-0.06747 0.17854,-0.06747c0.25,0 0.25,0.25 0.25,0.25l-0.2089,0.29422c-0.88571,0.13827 -1.96172,-0.52041 -2.99348,-0.52041c0,0 -0.03029,0 -0.06979,-0.01054c0.0646,0.54283 1.1566,0.80373 0.30168,1.6914c-0.83787,0.86997 -1.9551,-0.45077 -2.17577,0.91977c0,0 -0.00549,0.03292 -0.02448,0.07271c0.14909,0.25726 0.39889,0.49708 0.84474,0.69586c0.12913,0.20508 0.23202,0.43453 0.27498,0.67304l0.0034,0.08872c0,0 0,0.25 -0.25,0.25c-0.25,0 -0.25,-0.25 -0.25,-0.25l0.0034,-0.00652c-0.01902,-0.12836 -0.04571,-0.25966 -0.10597,-0.37458c-2.07027,-0.65535 -0.32172,-1.87981 -1.19048,-2.57143c-0.28825,-0.22947 -0.90794,-0.26602 -1.25996,-0.32469c0,0 -0.2466,-0.0411 -0.2055,-0.2877c0.0411,-0.2466 0.2877,-0.2055 0.2877,-0.2055c1.46367,0.24394 1.50484,0.88716 1.61491,1.56027c0.62684,-0.81539 2.12371,0.1043 2.33288,-0.95269c0.08783,-0.44384 -0.90589,-0.65326 -0.57856,-1.49861c0.40771,-0.41942 1.15085,-0.62455 1.00973,-1.29747l-0.0034,-0.08872c0,0 0,-0.25 0.25,-0.25c0.25,0 0.25,0.25 0.25,0.25l-0.0034,0.00652c0.11052,0.78852 -0.33188,1.03606 -0.81638,1.42261c0.85755,0.08514 1.82878,0.57628 2.5341,0.53119z" fill="#000000" stroke="none" stroke-width="0.5" stroke-linecap="butt"/><path d="M318.82353,178.57353c0.25,0 0.25,0.25 0.25,0.25l-0.0034,0.21757c-0.19207,1.15176 -0.78718,0.69051 -1.41046,1.19287c0.22173,0.11649 0.41141,0.28143 0.55471,0.51976l0.06806,0.13447c0,0 0.1118,0.22361 -0.1118,0.33541c-0.22361,0.1118 -0.33541,-0.1118 -0.33541,-0.1118l-0.04959,-0.10083c-0.52433,-0.87588 -2.34012,-0.46981 -3.40789,-0.8965c0,0 -0.10385,-0.04154 -0.14484,-0.13851c-1.27729,0.09565 -3.22448,-0.44601 -3.62114,0.11521c0,0 -0.15,0.2 -0.35,0.05c-0.2,-0.15 -0.05,-0.35 -0.05,-0.35c0.88032,-1.12839 3.1297,0.25974 4.49996,-0.42655l-0.05298,-0.00584c0,0 0.1118,-0.22361 0.33541,-0.1118c0.22361,0.1118 0.1118,0.33541 0.1118,0.33541l-0.14294,0.19222c0.70915,0.16766 1.51308,0.12199 2.17575,0.27436c0.01899,-0.03087 0.0374,-0.04928 0.0374,-0.04928c0.6566,-0.63933 1.25031,-0.13755 1.40077,-1.04079l-0.0034,-0.13537c0,0 0,-0.25 0.25,-0.25z" fill="#000000" stroke="none" stroke-width="0.5" stroke-linecap="butt"/><path d="M315.0192,184.71659c-0.0705,-0.01187 -0.21038,-0.05899 -0.21038,-0.246c0,-0.25 0.25,-0.25 0.25,-0.25l0.34125,0.1382c0.30816,0.61633 0.48115,1.31865 1.173,1.43418c0.03513,-0.6657 0.31609,-1.24883 1.50347,-1.45133l0.15875,-0.0034c0,0 0.25,0 0.25,0.25c0,0.25 -0.25,0.25 -0.25,0.25l-0.07655,-0.0034c-0.86268,0.1399 -1.13836,0.52601 -1.20005,1.01061c0.02151,0.01199 0.04261,0.0279 0.06074,0.04902c0.73976,0.13554 1.45024,0.71425 2.12469,0.19966l0.20882,-0.05c0,0 0.25,0 0.25,0.25c0,0.20328 -0.1653,0.24127 -0.22707,0.24837c-0.90689,0.61445 -1.52671,-0.09742 -2.42019,-0.16971c0.06868,0.89138 0.37649,1.91565 -0.804,2.38875c0,0 -0.23212,0.09285 -0.32497,-0.13927c-0.09285,-0.23212 0.13927,-0.32497 0.13927,-0.32497c0.84546,-0.33749 0.67113,-1.17589 0.61605,-2.00126c-0.00197,-0.0019 -0.00391,-0.00385 -0.00582,-0.00586c-0.88621,-0.12154 -1.18127,-0.80675 -1.557,-1.57359z" fill="#000000" stroke="none" stroke-width="0.5" stroke-linecap="butt"/><path d="M323.69118,184.52941c0,-0.25 0.25,-0.25 0.25,-0.25l0.26932,0.01788c1.90221,0.76876 -0.69557,2.29786 1.0946,3.37069c0,0 0.21437,0.12862 0.08575,0.343c-0.12862,0.21437 -0.343,0.08575 -0.343,0.08575c-1.82601,-1.09698 0.19058,-2.85408 -1.02305,-3.3352l-0.08362,0.01788c0,0 -0.25,0 -0.25,-0.25z" fill="#000000" stroke="none" stroke-width="0.5" stroke-linecap="butt"/><path d="M323.28281,179.33522c-0.0411,-0.2466 0.2055,-0.2877 0.2055,-0.2877l0.34897,-0.05813c0.38203,-0.07632 0.73842,-0.12111 1.12853,-0.12053c1.11382,0.23051 0.7955,1.29635 1.63952,1.86173c0.871,0.58345 2.15192,0.44667 3.14166,0.61104c0,0 0.2466,0.0411 0.2055,0.2877c-0.0411,0.2466 -0.2877,0.2055 -0.2877,0.2055c-1.08049,-0.18068 -2.37552,-0.05007 -3.32893,-0.68307c-0.69937,-0.46434 -0.6981,-1.64898 -1.41931,-1.78533c-0.34072,0.00064 -0.65547,0.04796 -0.98912,0.11477l-0.35691,0.05952c0,0 -0.2466,0.0411 -0.2877,-0.2055z" fill="#000000" stroke="none" stroke-width="0.5" stroke-linecap="butt"/><path d="M322.47059,172.33824c0.25,0 0.25,0.25 0.25,0.25l-0.00485,0.06862c0.19122,0.99909 1.30436,0.41615 1.63908,1.32291c0.16382,0.44378 -0.28735,1.19923 0.26744,1.37635c0,0 0.09412,0.03765 0.13852,0.12493c1.12796,-0.33289 2.53665,-0.00838 2.22703,-2.15157c0,0 -0.03536,-0.24749 0.21213,-0.28284c0.24749,-0.03536 0.28284,0.21213 0.28284,0.21213c0.49591,3.50771 -2.87482,1.46898 -3.42626,3.53775c-0.18354,0.35321 -0.15946,0.52185 -0.15946,0.90937v0.05882c0,0 0,0.25 -0.25,0.25c-0.25,0 -0.25,-0.25 -0.25,-0.25v-0.05882c0,-0.43995 -0.00249,-0.68552 0.19348,-1.09063c0.13424,-0.44482 0.36472,-0.72138 0.64491,-0.90241c-0.60093,-0.38912 -0.18661,-0.9193 -0.35497,-1.57496c-0.16032,-0.62434 -1.43786,-0.33337 -1.65503,-1.38297l-0.00485,-0.16668c0,0 0,-0.25 0.25,-0.25z" fill="#000000" stroke="none" stroke-width="0.5" stroke-linecap="butt"/><path d="M317.51471,176.82353c0,-0.25 0.25,-0.25 0.25,-0.25l0.09418,0.00251c1.18402,0.16919 1.30233,-0.47226 2.25862,-0.39186c-0.3307,-0.80392 -0.75771,-1.52571 -1.64692,-1.52241c0,0 -0.25,0 -0.25,-0.25c0,-0.25 0.25,-0.25 0.25,-0.25c1.70124,0.00548 1.99319,1.86512 2.63537,3.1382l0.02639,0.17063c0,0 0,0.25 -0.25,0.25c-0.25,0 -0.25,-0.25 -0.25,-0.25l0.02639,0.05298c-0.11987,-0.24228 -0.22573,-0.52002 -0.33357,-0.80507c-0.01332,-0.00118 -0.02127,-0.00277 -0.02127,-0.00277c-1.02775,-0.20555 -1.22668,0.53938 -2.51574,0.35528l-0.02347,0.00251c0,0 -0.25,0 -0.25,-0.25z" fill="#000000" stroke="none" stroke-width="0.5" stroke-linecap="butt"/></g></g></svg>