<svg version="1.1" xmlns="http://www.w3.org/2000/svg" xmlns:xlink="http://www.w3.org/1999/xlink" width="28.27403" height="21.59648" viewBox="0,0,28.27403,21.59648"><g transform="translate(-309.20176,-169.20176)"><g data-paper-data="{&quot;isPaintingLayer&quot;:true}" fill-rule="nonzero" stroke-linejoin="miter" stroke-miterlimit="10" stroke-dasharray="" stroke-dashoffset="0" style="mix-blend-mode: normal"><path d="M336.72578,175.87013l-14.70157,-5.62794" data-paper-data="{&quot;index&quot;:null}" fill="none" stroke="#000000" stroke-width="1.5" stroke-linecap="round"/><path d="M322.02422,189.75781l14.70157,-5.62794" data-paper-data="{&quot;index&quot;:null}" fill="none" stroke="#000000" stroke-width="1.5" stroke-linecap="round"/><path d="M309.95176,180c0,-5.54949 4.49875,-10.04824 10.04824,-10.04824c5.54949,0 10.04824,4.49875 10.04824,10.04824c0,5.54949 -4.49875,10.04824 -10.04824,10.04824c-5.54949,0 -10.04824,-4.49875 -10.04824,-10.04824z" fill="#4c7b51" stroke="#000000" stroke-width="1.5" stroke-linecap="butt"/><path d="M319.35863,170.69711c0.82253,1.15166 -0.15018,3.25621 -2.17261,4.70065c-2.02243,1.44444 -4.32872,1.68178 -5.15125,0.53012c-0.82253,-1.15166 0.15018,-3.25621 2.17261,-4.70065c2.02243,-1.44444 4.32872,-1.68178 5.15125,-0.53012z" fill="#e39eff" stroke="#000000" stroke-width="0.5" stroke-linecap="butt"/><path d="M319.19673,172.07938c0.03702,-0.03836 0.09322,-0.06747 0.17854,-0.06747c0.25,0 0.25,0.25 0.25,0.25l-0.2089,0.29422c-0.88571,0.13827 -1.96172,-0.52041 -2.99348,-0.52041c0,0 -0.03029,0 -0.06979,-0.01054c0.0646,0.54283 1.1566,0.80373 0.30168,1.6914c-0.83787,0.86997 -1.9551,-0.45077 -2.17577,0.91977c0,0 -0.00549,0.03292 -0.02448,0.07271c0.14909,0.25726 0.39889,0.49708 0.84474,0.69586c0.12913,0.20508 0.23202,0.43453 0.27498,0.67304l0.0034,0.08872c0,0 0,0.25 -0.25,0.25c-0.25,0 -0.25,-0.25 -0.25,-0.25l0.0034,-0.00652c-0.01902,-0.12836 -0.04571,-0.25966 -0.10597,-0.37458c-2.07027,-0.65535 -0.32172,-1.87981 -1.19048,-2.57143c-0.28825,-0.22947 -0.90794,-0.26602 -1.25996,-0.32469c0,0 -0.2466,-0.0411 -0.2055,-0.2877c0.0411,-0.2466 0.2877,-0.2055 0.2877,-0.2055c1.46367,0.24394 1.50484,0.88716 1.61491,1.56027c0.62684,-0.81539 2.12371,0.1043 2.33288,-0.95269c0.08783,-0.44384 -0.90589,-0.65326 -0.57856,-1.49861c0.40771,-0.41942 1.15085,-0.62455 1.00973,-1.29747l-0.0034,-0.08872c0,0 0,-0.25 0.25,-0.25c0.25,0 0.25,0.25 0.25,0.25l-0.0034,0.00652c0.11052,0.78852 -0.33188,1.03606 -0.81638,1.42261c0.85755,0.08514 1.82878,0.57628 2.5341,0.53119z" fill="#000000" stroke="none" stroke-width="0.5" stroke-linecap="butt"/><path d="M319.5276,183.99276c0.24254,-0.06063 0.30317,0.1819 0.30317,0.1819l0.0461,0.19751c0.31557,0.73717 0.65213,1.86961 0.29253,2.67105c-0.52735,1.1753 -1.99683,0.6037 -1.68896,2.14305c0,0 0.04903,0.24515 -0.19612,0.29417c-0.24515,0.04903 -0.29417,-0.19612 -0.29417,-0.19612c-0.45967,-2.29835 2.67463,-1.80347 1.4271,-4.71532l-0.07155,-0.27308c0,0 -0.06063,-0.24254 0.1819,-0.30317z" fill="#000000" stroke="none" stroke-width="0.5" stroke-linecap="butt"/><path d="M326.55044,174.50213c-0.20801,0.13868 -0.34669,-0.06934 -0.34669,-0.06934l-0.10963,-0.46515c0.35977,-0.43609 0.79684,-0.40073 1.32744,-0.50691c0,0 0.24515,-0.04903 0.29417,0.19612c0.04903,0.24515 -0.19612,0.29417 -0.19612,0.29417c-0.33851,0.06766 -0.84102,0.01879 -1.0255,0.31662l0.12566,-0.1122c0,0 0.13868,0.20801 -0.06934,0.34669z" fill="#000000" stroke="none" stroke-width="0.5" stroke-linecap="butt"/><path d="M312.96598,180.40859c-0.23212,-0.09285 -0.13927,-0.32497 -0.13927,-0.32497l0.09998,-0.19088c-0.44323,-0.79918 -2.04634,0.12335 -2.79132,0.00091c0,0 -0.2466,-0.0411 -0.2055,-0.2877c0.0411,-0.2466 0.2877,-0.2055 0.2877,-0.2055c1.22162,0.20678 2.46182,-1.08321 3.20868,0.4715l-0.13531,0.39735c0,0 -0.09285,0.23212 -0.32497,0.13927z" fill="#000000" stroke="none" stroke-width="0.5" stroke-linecap="butt"/></g></g></svg>